<svg width="222" height="222" viewBox="0 0 222 222" fill="none" xmlns="http://www.w3.org/2000/svg">
<circle cx="111" cy="111" r="111" fill="#F2F1F1"/>
<path d="M146.679 113.796C146.679 106.952 147.416 101.404 139.614 101.404H69.9395C62.1373 101.404 62.8762 106.953 62.8762 113.796V115.581C62.8762 122.426 62.139 127.973 69.9395 127.973H70.5599L70.5499 128.061C70.5499 129.873 72.2227 131.339 74.2859 131.339C76.349 131.339 78.0218 129.873 78.0218 128.061L78.0118 127.973H131.141C131.194 129.741 132.839 131.16 134.867 131.16C136.895 131.16 138.539 129.739 138.591 127.973H139.614C147.417 127.973 146.679 122.426 146.679 115.581V113.796Z" fill="black"/>
<path d="M188.28 66.9346H45.3371V77.3202H33.4688V156.181H176.983V145.225H188.28V66.9346ZM173.646 152.843H36.8044V80.6542H173.648L173.646 152.843ZM184.944 141.887H176.983V77.3186H48.6728V70.2686H184.944V141.887Z" fill="black"/>
</svg>
