<svg xmlns="http://www.w3.org/2000/svg" viewBox="0 0 847.81 224.1"><defs><style>.cls-1{fill:#dbf70f;}.cls-2{fill:#030303;}.cls-3{fill:#040404;}</style></defs><title>Logo (Primary)</title><g id="Layer_2" data-name="Layer 2"><g id="Layer_1-2" data-name="Layer 1"><path d="M158.93,0H65A65,65,0,0,0,0,65.08L.13,159A65.19,65.19,0,0,0,65.31,224.1h93.94a65,65,0,0,0,65-65.08l-.14-93.94A65.19,65.19,0,0,0,158.93,0Z"/><path class="cls-1" d="M37.86,93.25c0-7.82-.18-15.65,0-23.46A12.22,12.22,0,0,1,49.21,58,12.37,12.37,0,0,1,62.05,67.6a20.17,20.17,0,0,1,.47,5l0,20.25,0,19.79a28.57,28.57,0,0,0,23.2,28.55c12.89,2.71,26.51-4.56,31.89-17a25.34,25.34,0,0,0,2.26-10.25,19.34,19.34,0,0,1,.58-5.46,12.25,12.25,0,0,1,13.17-9.11,12.09,12.09,0,0,1,10.79,11.8c.68,27.89-19.68,52.63-49.07,55s-52.53-18.91-56.75-44.4c-.89-5.35-.72-10.7-.78-16.06,0-4.14,0-8.28,0-12.42Z"/><path class="cls-1" d="M186.23,130.74c0,8,.14,15.95,0,23.93a12,12,0,0,1-10.5,11.56,12.48,12.48,0,0,1-13.14-8,16.62,16.62,0,0,1-.69-5.9c0-13.65,0-27.3-.08-41a29,29,0,0,0-24.47-28.56c-13.84-2.2-27.49,6.38-31.82,20a38.48,38.48,0,0,0-1.44,10.42,11.56,11.56,0,0,1-7,10.52,11.68,11.68,0,0,1-12.58-1.33c-3.51-2.57-4.81-6.19-4.77-10.43.17-15.65,5.5-29.21,17.12-39.74,15.62-14.14,33.91-18.2,53.8-11.14,20.06,7.12,31.63,22,35.12,42.94,1.19,7.1.33,14.39.46,21.59,0,1.69,0,3.38,0,5.06Z"/><path class="cls-2" d="M308.69,115.38c0-5.42-.12-10.84,0-16.25A8.47,8.47,0,0,1,316.55,91a8.56,8.56,0,0,1,8.89,6.67,14,14,0,0,1,.33,3.47q0,7,0,14,0,6.84,0,13.69a19.79,19.79,0,0,0,16.06,19.78c8.92,1.87,18.35-3.16,22.08-11.81a17.48,17.48,0,0,0,1.56-7.09,13.4,13.4,0,0,1,.4-3.78,8.5,8.5,0,0,1,9.12-6.31,8.37,8.37,0,0,1,7.47,8.17c.47,19.31-13.63,36.44-34,38.07a36.88,36.88,0,0,1-39.29-30.74A72.48,72.48,0,0,1,308.7,124c0-2.87,0-5.74,0-8.6Z"/><path class="cls-2" d="M411.41,141.33c0,5.52.1,11,0,16.57a8.3,8.3,0,0,1-7.27,8,8.63,8.63,0,0,1-9.09-5.52,11.49,11.49,0,0,1-.49-4.08c0-9.45,0-18.9,0-28.35a19.93,19.93,0,0,0-39-5.93,27,27,0,0,0-1,7.21,8,8,0,0,1-4.86,7.29,8.11,8.11,0,0,1-8.71-.92,8.25,8.25,0,0,1-3.3-7.23c.12-10.83,3.81-20.22,11.86-27.5,10.81-9.79,23.47-12.61,37.24-7.72s21.89,15.25,24.32,29.73c.82,4.92.22,10,.31,15,0,1.17,0,2.34,0,3.5Z"/><path d="M272.6,154.45,272.47,70c0-3.9.86-6.85,2.6-8.85a8.8,8.8,0,0,1,7-3,9.19,9.19,0,0,1,7.13,3q2.71,3,2.73,8.88l.12,84.46q0,5.91-2.73,8.88a9.26,9.26,0,0,1-7.1,3,8.84,8.84,0,0,1-7-3.07C273.5,161.18,272.6,158.25,272.6,154.45Z"/><path d="M472.76,157.37l-17.23-28.25-10.55,10,0,15.48c0,3.76-1,6.64-2.95,8.67a9.25,9.25,0,0,1-6.81,3,8.83,8.83,0,0,1-7.07-3c-1.71-2-2.57-4.94-2.58-8.84l-.12-83c0-4.32.82-7.62,2.49-9.88a8.32,8.32,0,0,1,7.12-3.38,9,9,0,0,1,7.14,3.06c1.76,2,2.65,5.07,2.65,9.06L445,117.5l21.87-23a51.7,51.7,0,0,1,6.2-5.85,8.51,8.51,0,0,1,5.2-1.57,8.42,8.42,0,0,1,6.07,2.32,7.68,7.68,0,0,1,2.43,5.81q0,4.28-7.9,11.41l-10.33,9.49,20,31.39q2.22,3.5,3.18,5.31a7.46,7.46,0,0,1,1,3.46,10.23,10.23,0,0,1-2.52,7.31,8.77,8.77,0,0,1-6.67,2.68,7.43,7.43,0,0,1-5.49-1.93A45.76,45.76,0,0,1,472.76,157.37Z"/><path d="M556.26,155.16v-1.93a49.23,49.23,0,0,1-7.73,7.31,28.92,28.92,0,0,1-8.27,4.28,30.94,30.94,0,0,1-9.74,1.47,28.77,28.77,0,0,1-12.95-3,30.36,30.36,0,0,1-10.32-8.46A38.55,38.55,0,0,1,500.64,142a54.66,54.66,0,0,1-2.27-16.05q0-18.25,8.87-28.46t23.46-10.2a31.52,31.52,0,0,1,14.2,2.89A39.9,39.9,0,0,1,556.18,99l0-28.75q0-6,2.37-9.06a8.13,8.13,0,0,1,6.81-3.06A8.48,8.48,0,0,1,572.14,61q2.39,2.82,2.4,8.31l.12,85.89q0,5.57-2.55,8.34a9.14,9.14,0,0,1-13.24-.1C557.14,161.47,556.26,158.73,556.26,155.16Zm-38.35-28.61A33.43,33.43,0,0,0,520.39,140a18.84,18.84,0,0,0,6.76,8.38,16.64,16.64,0,0,0,9.34,2.82,17.26,17.26,0,0,0,9.38-2.68,18.39,18.39,0,0,0,6.77-8.2,33.17,33.17,0,0,0,2.51-13.81,32.37,32.37,0,0,0-2.55-13.37,20.19,20.19,0,0,0-6.86-8.56,16.43,16.43,0,0,0-9.46-3,15.91,15.91,0,0,0-9.55,3,19.37,19.37,0,0,0-6.52,8.7A34.71,34.71,0,0,0,517.91,126.55Z"/><path d="M614.09,138.18l0,16.27c0,3.94-.92,6.9-2.77,8.88a9.26,9.26,0,0,1-7.06,3,8.92,8.92,0,0,1-6.92-3c-1.81-2-2.72-4.94-2.72-8.84l-.08-54.22q0-13.12,9.47-13.12,4.85,0,7,3.06t2.37,9.06a34.2,34.2,0,0,1,7.15-9.06q3.68-3.06,9.81-3.06a25.2,25.2,0,0,1,11.92,3.06q5.78,3.08,5.79,8.14a7.73,7.73,0,0,1-2.46,5.88,7.61,7.61,0,0,1-5.31,2.32,24.46,24.46,0,0,1-5.17-1.32,24.08,24.08,0,0,0-7.24-1.32,10.55,10.55,0,0,0-7,2.25,14.32,14.32,0,0,0-4.2,6.67,46.48,46.48,0,0,0-2.05,10.52Q614.07,129.4,614.09,138.18Z"/><path d="M678,98.16l.08,56.29c0,3.9-.92,6.84-2.77,8.84a9.21,9.21,0,0,1-7.06,3,8.84,8.84,0,0,1-7-3.07c-1.79-2-2.68-5-2.69-8.77l-.08-55.72q0-5.78,2.67-8.7a9,9,0,0,1,6.95-2.92A9.32,9.32,0,0,1,675.2,90Q678,93,678,98.16Z"/><path d="M712.89,99.23l15.83,44.23,16.91-46.15a27.18,27.18,0,0,1,3.91-7.88q1.92-2.33,5.84-2.32a8.81,8.81,0,0,1,6.32,2.49,7.8,7.8,0,0,1,2.61,5.78,11.19,11.19,0,0,1-.46,3,27.45,27.45,0,0,1-1.06,3.21c-.4,1-.87,2.14-1.39,3.42l-18.62,46.37q-.78,2-2,5.06a25.72,25.72,0,0,1-2.77,5.25,10.8,10.8,0,0,1-3.78,3.38,11.28,11.28,0,0,1-5.45,1.22,10.56,10.56,0,0,1-6.6-1.89,12.87,12.87,0,0,1-3.65-4.14q-1.17-2.25-4-8.88l-18.61-45.87q-.64-1.71-1.32-3.42a28.64,28.64,0,0,1-1.15-3.5,12.48,12.48,0,0,1-.47-3.07,7.4,7.4,0,0,1,1.21-4,9.31,9.31,0,0,1,3.35-3.21,8.94,8.94,0,0,1,4.63-1.25c3.23,0,5.46.92,6.67,2.78A43.94,43.94,0,0,1,712.89,99.23Z"/><path d="M831.78,131.48H793.69a25.79,25.79,0,0,0,2.69,11.69,17.93,17.93,0,0,0,16.46,10.21,23.59,23.59,0,0,0,6.38-.82,21.19,21.19,0,0,0,5.6-2.57,43.77,43.77,0,0,0,5-3.75q2.28-2,5.92-5.42a6.33,6.33,0,0,1,4.27-1.28,7,7,0,0,1,4.86,1.64,5.88,5.88,0,0,1,1.86,4.63,12.72,12.72,0,0,1-2.06,6.17,24.35,24.35,0,0,1-6.23,6.78,35.53,35.53,0,0,1-10.48,5.39,45.35,45.35,0,0,1-14.51,2.14q-18.76,0-29.2-10.7t-10.45-29a48.47,48.47,0,0,1,2.54-16,35.29,35.29,0,0,1,7.48-12.66,32.36,32.36,0,0,1,12.11-8.1,43.49,43.49,0,0,1,16-2.82q11.4,0,19.58,4.82a31.68,31.68,0,0,1,12.25,12.45,32.77,32.77,0,0,1,4.09,15.55q0,7.35-4.19,9.52T831.78,131.48Zm-38.11-11.06H829q-.72-10-5.41-14.94t-12.31-5a15.54,15.54,0,0,0-11.94,5Q794.66,110.58,793.67,120.42Z"/><ellipse class="cls-3" cx="668.91" cy="68.25" rx="10.43" ry="10.44" transform="translate(147.81 493.17) rotate(-45.02)"/><ellipse class="cls-3" cx="317.37" cy="68.25" rx="10.43" ry="10.44" transform="translate(44.76 244.5) rotate(-45.02)"/></g></g></svg>