<svg width="269" height="71" viewBox="0 0 269 71" fill="none" xmlns="http://www.w3.org/2000/svg">
<g clipPath="url(#clip0_650_3984)">
<path d="M50.3478 0H20.5915C17.8853 -2.0499e-06 15.2056 0.533503 12.7056 1.57001C10.2057 2.60651 7.93458 4.12568 6.02215 6.04065C4.10973 7.95562 2.5935 10.2288 1.56017 12.7303C0.526841 15.2317 -0.00331517 17.9123 1.55973e-05 20.6188L0.0411986 50.3748C0.0487526 55.847 2.22745 61.0926 6.09888 64.9596C9.97032 68.8267 15.218 70.9992 20.6897 71H50.4492C53.1554 71 55.8351 70.4665 58.335 69.43C60.835 68.3935 63.1061 66.8743 65.0185 64.9593C66.9309 63.0444 68.4472 60.7712 69.4805 58.2697C70.5138 55.7683 71.044 53.0877 71.0406 50.3812L70.9963 20.6188C70.9871 15.1477 68.8076 9.90381 64.9364 6.03812C61.0651 2.17242 55.8184 0.000831468 50.3478 0V0Z" fill="black"/>
<path d="M11.9929 29.545C11.9929 27.0675 11.9359 24.5868 11.9929 22.1124C12.0242 21.1553 12.409 20.2437 13.0731 19.5539C13.7372 18.864 14.6333 18.4447 15.5885 18.377C16.5171 18.3185 17.4364 18.5923 18.1816 19.1496C18.9269 19.7068 19.4495 20.5111 19.6561 21.4185C19.7715 21.9383 19.8215 22.4705 19.805 23.0026V29.4183V35.6882C19.7685 37.8202 20.4858 39.8965 21.8304 41.5513C23.1749 43.2061 25.0604 44.3331 27.1545 44.7335C31.238 45.5921 35.5527 43.2888 37.257 39.3475C37.7197 38.3269 37.9636 37.2207 37.973 36.1001C37.9517 35.5177 38.0135 34.9352 38.1567 34.3703C38.3901 33.4685 38.94 32.6808 39.7059 32.1509C40.4719 31.621 41.4029 31.3843 42.3289 31.484C43.2561 31.5841 44.1149 32.0191 44.7442 32.7074C45.3735 33.3957 45.7301 34.29 45.7471 35.2225C45.9625 44.0587 39.5126 51.8969 30.2021 52.6478C20.8916 53.3986 13.561 46.6566 12.2241 38.5808C11.9422 36.8858 11.996 35.1908 11.977 33.4927C11.977 32.181 11.977 30.8694 11.977 29.5577L11.9929 29.545Z" fill="#DBF70F"/>
<path d="M58.9962 41.4213C58.9962 43.9558 59.0406 46.4746 58.9962 49.0028C58.97 49.9098 58.6203 50.7776 58.0103 51.4492C57.4003 52.1209 56.5701 52.5522 55.6699 52.6653C54.7927 52.7686 53.9061 52.5751 53.1516 52.1157C52.3972 51.6563 51.8183 50.9575 51.5072 50.1307C51.3227 49.5258 51.2487 48.8926 51.2887 48.2615C51.2887 43.9368 51.2887 39.6122 51.2633 35.2717C51.257 33.0883 50.4734 30.9785 49.0529 29.3204C47.6324 27.6623 45.6679 26.5643 43.5114 26.2233C39.127 25.5262 34.8028 28.2446 33.4311 32.5597C33.1286 33.6341 32.9752 34.7449 32.9749 35.861C32.9686 36.5719 32.7556 37.2655 32.3618 37.8573C31.968 38.4492 31.4105 38.9136 30.7574 39.194C30.1228 39.5139 29.4095 39.6443 28.7028 39.5696C27.996 39.4949 27.3258 39.2182 26.7721 38.7726C25.6602 37.9584 25.2484 36.8115 25.261 35.4681C25.3149 30.5099 27.0034 26.2138 30.6845 22.8776C35.6328 18.3977 41.4269 17.1114 47.7279 19.3482C54.0828 21.604 57.7481 26.3183 58.8537 32.9526C59.2306 35.202 58.9582 37.5117 58.9994 39.7928C58.9994 40.3282 58.9994 40.8636 58.9994 41.3959L58.9962 41.4213Z" fill="#DBF70F"/>
<path d="M97.7901 36.5559C97.7901 34.8387 97.7521 33.1215 97.7901 31.4075C97.8149 30.7468 98.0828 30.1186 98.5423 29.6432C99.0018 29.1679 99.6206 28.8789 100.28 28.8318C100.924 28.7912 101.562 28.9818 102.078 29.3691C102.594 29.7565 102.955 30.3152 103.096 30.945C103.177 31.3056 103.212 31.675 103.201 32.0444C103.201 33.5229 103.201 35.0014 103.201 36.4799C103.201 37.9246 103.201 39.3704 103.201 40.8172C103.175 42.2937 103.671 43.7319 104.602 44.8783C105.533 46.0247 106.838 46.8058 108.289 47.0839C111.114 47.6764 114.102 46.0828 115.283 43.3423C115.603 42.6363 115.772 41.8711 115.778 41.096C115.763 40.6928 115.805 40.2895 115.904 39.8984C116.067 39.2745 116.448 38.7295 116.978 38.3627C117.508 37.9958 118.152 37.8314 118.793 37.8992C119.435 37.9686 120.03 38.2698 120.466 38.7463C120.901 39.2229 121.148 39.8421 121.16 40.4877C121.309 46.6055 116.842 52.0327 110.389 52.5491C107.472 52.7797 104.574 51.907 102.269 50.1035C99.9644 48.3001 98.4203 45.6973 97.9422 42.81C97.8023 41.6412 97.7525 40.4634 97.7933 39.2869C97.7933 38.3776 97.7933 37.4684 97.7933 36.5622L97.7901 36.5559Z" fill="#DEFA0F"/>
<path d="M130.332 44.7771C130.332 46.5259 130.364 48.2621 130.332 50.0268C130.314 50.6548 130.072 51.2556 129.649 51.7205C129.227 52.1854 128.652 52.4837 128.029 52.5614C127.422 52.6334 126.809 52.5003 126.288 52.1833C125.766 51.8664 125.365 51.3838 125.149 50.8126C125.02 50.3945 124.968 49.9566 124.994 49.5199C124.994 46.5259 124.994 43.532 124.994 40.538C125.005 39.0202 124.468 37.5494 123.483 36.3948C122.498 35.2402 121.13 34.4792 119.629 34.251C118.129 34.0229 116.597 34.3429 115.313 35.1524C114.029 35.9619 113.08 37.2069 112.639 38.6592C112.431 39.4029 112.324 40.1713 112.322 40.9435C112.318 41.4365 112.17 41.9176 111.897 42.3279C111.623 42.7381 111.236 43.0597 110.783 43.2532C110.343 43.4738 109.849 43.5636 109.36 43.512C108.871 43.4603 108.407 43.2693 108.023 42.9617C107.67 42.6988 107.389 42.351 107.207 41.9506C107.024 41.5501 106.945 41.11 106.978 40.6711C107.016 37.2399 108.185 34.2649 110.735 31.9584C114.16 28.8567 118.17 27.9633 122.532 29.5126C126.895 31.0618 129.467 34.3441 130.237 38.9317C130.497 40.4905 130.307 42.0999 130.335 43.684C130.335 44.0547 130.335 44.4254 130.335 44.7929L130.332 44.7771Z" fill="#DEFA0F"/>
<path d="M86.3564 48.9333L86.3152 22.1777C86.3152 20.942 86.5876 20.0074 87.1388 19.3738C87.4137 19.0594 87.7557 18.8107 88.1395 18.6462C88.5233 18.4817 88.9392 18.4055 89.3564 18.4233C89.7793 18.408 90.2005 18.4851 90.5906 18.6493C90.9807 18.8134 91.3303 19.0607 91.6151 19.3738C92.1875 20.0074 92.4757 20.9452 92.48 22.1872L92.518 48.946C92.518 50.1943 92.2297 51.1321 91.6531 51.7594C91.3685 52.0701 91.0202 52.3158 90.6321 52.4798C90.244 52.6438 89.8251 52.7223 89.4039 52.7099C88.9851 52.724 88.5684 52.644 88.1846 52.4756C87.8008 52.3073 87.4597 52.055 87.1864 51.7372C86.6415 51.0656 86.3564 50.1373 86.3564 48.9333Z" fill="#DEFA0F"/>
<path d="M149.767 49.8578L144.309 40.9076L140.966 44.0758V48.9802C140.966 50.1715 140.65 51.0839 140.032 51.7271C139.758 52.0263 139.424 52.2652 139.053 52.4288C138.682 52.5924 138.28 52.6771 137.874 52.6775C137.454 52.698 137.034 52.6232 136.646 52.4586C136.258 52.294 135.912 52.0439 135.635 51.7271C135.093 51.0934 134.821 50.162 134.817 48.9263L134.779 22.6301C134.779 21.2614 135.039 20.2159 135.568 19.4998C135.826 19.1488 136.168 18.8672 136.561 18.6804C136.955 18.4935 137.389 18.4071 137.824 18.429C138.249 18.4114 138.673 18.4893 139.065 18.6571C139.456 18.8249 139.805 19.0782 140.086 19.3985C140.643 20.0321 140.925 21.0048 140.925 22.2689L140.973 37.2261L147.901 29.9392C148.504 29.2683 149.16 28.6484 149.865 28.0857C150.345 27.7444 150.924 27.5697 151.512 27.5883C151.866 27.5773 152.217 27.6367 152.548 27.7628C152.878 27.889 153.179 28.0796 153.435 28.3234C153.686 28.5583 153.885 28.8439 154.018 29.1612C154.15 29.4785 154.214 29.8203 154.205 30.1641C154.205 31.0681 153.371 32.2731 151.702 33.7791L148.43 36.7857L154.766 46.7308C155.235 47.47 155.57 48.0308 155.773 48.4131C155.967 48.7471 156.076 49.1235 156.09 49.5093C156.137 50.356 155.851 51.1875 155.292 51.8253C155.019 52.1081 154.69 52.3299 154.326 52.4763C153.962 52.6226 153.571 52.6901 153.179 52.6744C152.863 52.6947 152.546 52.6511 152.247 52.546C151.948 52.4409 151.673 52.2766 151.44 52.0629C150.813 51.3829 150.253 50.6445 149.767 49.8578Z" fill="#DEFA0F"/>
<path d="M176.219 49.1579V48.5464C175.489 49.4046 174.668 50.1811 173.771 50.8624C172.976 51.453 172.091 51.9109 171.151 52.2184C170.154 52.5374 169.112 52.6947 168.065 52.6841C166.642 52.6919 165.237 52.3664 163.963 51.7337C162.688 51.0938 161.571 50.1782 160.693 49.0533C159.746 47.8423 159.035 46.4632 158.599 44.9885C158.108 43.3387 157.866 41.6248 157.88 39.9035C157.88 36.0488 158.817 33.0432 160.69 30.8867C162.563 28.7302 165.041 27.653 168.122 27.6551C169.672 27.6068 171.213 27.9203 172.621 28.5708C173.97 29.2791 175.181 30.2258 176.194 31.3651V22.2565C176.194 20.9892 176.444 20.0324 176.945 19.3861C177.201 19.0639 177.53 18.8077 177.906 18.639C178.281 18.4703 178.691 18.3941 179.102 18.4166C179.505 18.397 179.908 18.4685 180.28 18.6259C180.652 18.7834 180.983 19.0226 181.25 19.3259C181.755 19.9215 182.008 20.7991 182.01 21.9587L182.048 49.1706C182.048 50.347 181.779 51.2278 181.24 51.8129C180.968 52.095 180.641 52.3187 180.279 52.4706C179.918 52.6224 179.529 52.6992 179.137 52.6962C178.744 52.6933 178.357 52.6106 177.997 52.4533C177.638 52.296 177.314 52.0674 177.046 51.7812C176.498 51.1571 176.219 50.289 176.219 49.1579ZM164.07 40.0936C164.036 41.553 164.303 43.0038 164.856 44.3549C165.296 45.4293 166.041 46.352 166.998 47.0098C167.872 47.5966 168.903 47.9078 169.956 47.9033C171.008 47.9119 172.04 47.6171 172.928 47.0542C173.883 46.4183 174.629 45.5146 175.073 44.4562C175.647 43.0712 175.918 41.5794 175.868 40.0809C175.902 38.6276 175.626 37.1838 175.06 35.845C174.6 34.7577 173.847 33.8191 172.887 33.133C172.01 32.5148 170.963 32.1828 169.89 32.1825C168.805 32.1656 167.744 32.4989 166.864 33.133C165.927 33.8357 165.21 34.7922 164.799 35.8894C164.284 37.2298 164.036 38.6581 164.07 40.0936Z" fill="#DEFA0F"/>
<path d="M194.539 43.7793V48.934C194.539 50.1823 194.247 51.1201 193.661 51.7474C193.378 52.0564 193.032 52.3012 192.646 52.4651C192.26 52.6291 191.844 52.7084 191.425 52.6979C191.012 52.7092 190.602 52.6299 190.223 52.4657C189.844 52.3015 189.506 52.0563 189.232 51.7474C188.659 51.1137 188.371 50.1823 188.371 48.9467L188.345 31.7685C188.345 28.9974 189.345 27.6118 191.345 27.6118C192.37 27.6118 193.109 27.935 193.563 28.5813C194.017 29.2276 194.267 30.1844 194.314 31.4517C194.901 30.3735 195.667 29.4029 196.579 28.5813C197.356 27.935 198.392 27.6118 199.687 27.6118C201.006 27.6179 202.304 27.951 203.463 28.5813C204.683 29.2318 205.295 30.0915 205.297 31.1602C205.307 31.5083 205.243 31.8545 205.108 32.1758C204.974 32.497 204.773 32.7859 204.518 33.0232C204.076 33.4804 203.471 33.7446 202.836 33.7582C202.276 33.6789 201.727 33.5387 201.198 33.34C200.459 33.0839 199.686 32.9428 198.904 32.9218C198.103 32.8858 197.316 33.1387 196.687 33.6346C196.054 34.2007 195.593 34.9328 195.356 35.7478C195.012 36.8301 194.794 37.9485 194.707 39.0808C194.59 40.3587 194.535 41.9248 194.539 43.7793Z" fill="#DEFA0F"/>
<path d="M214.785 31.1002L214.81 48.9342C214.81 50.1698 214.519 51.1013 213.933 51.7349C213.65 52.0448 213.304 52.2901 212.918 52.4541C212.532 52.6181 212.115 52.697 211.696 52.6854C211.277 52.6995 210.861 52.6195 210.477 52.4511C210.093 52.2828 209.752 52.0305 209.479 51.7127C208.912 51.0791 208.63 50.1286 208.627 48.9342L208.601 31.2808C208.601 30.06 208.883 29.1412 209.447 28.5245C209.725 28.2202 210.066 27.98 210.446 27.8202C210.826 27.6605 211.237 27.5852 211.649 27.5993C212.067 27.5837 212.484 27.6573 212.872 27.8152C213.26 27.973 213.609 28.2116 213.898 28.515C214.489 29.1486 214.785 30.0104 214.785 31.1002Z" fill="#DEFA0F"/>
<path d="M225.838 31.4386L230.853 45.4517L236.21 30.8303C236.484 29.9364 236.903 29.0931 237.448 28.3337C237.854 27.8416 238.47 27.5966 239.298 27.5987C239.668 27.5911 240.035 27.657 240.378 27.7924C240.722 27.9278 241.036 28.1301 241.3 28.3876C241.559 28.6179 241.766 28.8999 241.908 29.2154C242.051 29.5308 242.125 29.8727 242.127 30.2188C242.122 30.5408 242.073 30.8606 241.982 31.1693C241.891 31.5149 241.778 31.8545 241.646 32.1863C241.519 32.5031 241.37 32.8643 241.205 33.2698L235.307 47.9609C235.142 48.3833 234.931 48.9177 234.673 49.564C234.446 50.1505 234.151 50.7086 233.796 51.2273C233.487 51.6743 233.077 52.0414 232.598 52.2982C232.064 52.5697 231.47 52.7027 230.872 52.6847C230.128 52.7236 229.392 52.5129 228.781 52.0859C228.305 51.7375 227.911 51.29 227.625 50.7743C227.377 50.299 226.955 49.3613 226.357 47.9609L220.462 33.4282C220.327 33.0671 220.187 32.7059 220.044 32.3447C219.899 31.9833 219.777 31.6129 219.679 31.2358C219.589 30.9191 219.539 30.5923 219.531 30.2632C219.534 29.8127 219.667 29.3727 219.914 28.9959C220.176 28.5727 220.541 28.2229 220.975 27.9789C221.419 27.7157 221.926 27.5788 222.442 27.5829C223.465 27.5829 224.172 27.8743 224.555 28.4636C225.097 29.402 225.527 30.4004 225.838 31.4386Z" fill="#DEFA0F"/>
<path d="M263.502 41.6554H251.435C251.424 42.9398 251.716 44.2087 252.287 45.3591C252.755 46.341 253.496 47.1678 254.42 47.7412C255.344 48.3147 256.414 48.6106 257.502 48.5938C258.184 48.5999 258.864 48.5125 259.523 48.334C260.151 48.1505 260.748 47.8762 261.297 47.5198C261.852 47.162 262.382 46.765 262.881 46.3317C263.362 45.9093 263.987 45.3369 264.756 44.6145C265.143 44.3198 265.624 44.1757 266.109 44.209C266.669 44.1811 267.219 44.3668 267.648 44.7286C267.848 44.9149 268.005 45.1429 268.106 45.3964C268.208 45.6499 268.253 45.9227 268.238 46.1955C268.193 46.8926 267.968 47.5663 267.585 48.1503C267.07 48.9853 266.4 49.7144 265.611 50.2983C264.608 51.0484 263.485 51.6256 262.291 52.006C260.806 52.48 259.254 52.709 257.695 52.684C253.733 52.684 250.649 51.554 248.445 49.294C246.24 47.034 245.136 43.9714 245.134 40.1062C245.116 38.3832 245.388 36.6696 245.939 35.037C246.438 33.5484 247.246 32.1818 248.308 31.026C249.375 29.8901 250.687 29.0124 252.145 28.4597C253.763 27.8462 255.483 27.5431 257.213 27.5663C259.621 27.5663 261.689 28.0753 263.416 29.0934C265.054 30.0186 266.398 31.3853 267.297 33.0378C268.131 34.5469 268.576 36.2401 268.592 37.9644C268.592 39.5169 268.15 40.5222 267.265 40.9806C266.38 41.4389 265.126 41.6639 263.502 41.6554ZM251.429 38.1514H262.621C262.469 36.0392 261.898 34.4614 260.907 33.418C259.917 32.3746 258.617 31.8466 257.007 31.8339C256.3 31.8106 255.596 31.94 254.943 32.2133C254.291 32.4867 253.704 32.8976 253.225 33.418C252.237 34.4952 251.638 36.073 251.429 38.1514Z" fill="#DEFA0F"/>
<path d="M214.245 23.9635C215.535 22.6726 215.533 20.5793 214.241 19.2881C212.949 17.9968 210.856 17.9965 209.566 19.2875C208.276 20.5784 208.278 22.6716 209.57 23.9629C210.862 25.2542 212.955 25.2544 214.245 23.9635Z" fill="#DEFA0F"/>
<path d="M102.882 23.9618C104.172 22.6709 104.17 20.5776 102.878 19.2864C101.586 17.9951 99.4929 17.9948 98.203 19.2857C96.9131 20.5767 96.9148 22.6699 98.2069 23.9612C99.4989 25.2525 101.592 25.2527 102.882 23.9618Z" fill="#DEFA0F"/>
</g>
<defs>
<clipPath id="clip0_650_3984">
<rect width="268.579" height="71" fill="white"/>
</clipPath>
</defs>
</svg>
